<svg xmlns="http://www.w3.org/2000/svg" viewBox="0 0 49 41" width="49" height="41">
	<style>
		tspan { white-space:pre }
		.shp0 { fill: #ff817e } 
	</style>
	<g id="Header">
		<g id="Logo">
			<path id="Icon" class="shp0" d="M24.46 37.98C24.46 37.98 50.52 24.47 31.14 0C31.14 0 29.86 7.25 22.52 12.83C22.52 12.83 13.32 20.43 18.5 31.19C18.5 31.19 14.32 28.17 9.67 29.22C9.67 29.22 4.49 31.14 0 28.99C0 28.99 4.47 46.64 21.41 39.06C21.41 39.06 14.99 40.1 9.33 35.2C9.33 35.2 15.68 38.91 22.06 37.7C22.06 37.7 29.97 30.04 30.76 17.05C30.76 17.05 32.67 26.27 24.46 37.98ZM47.27 14.02C45.62 13.06 43.5 13.63 42.55 15.3C41.6 16.97 42.17 19.11 43.82 20.07C44.58 20.51 45.43 20.62 46.22 20.46C45.36 22.92 39.47 37.54 21.07 40.99C21.07 40.99 40.49 39.79 48.73 18.42C48.74 18.4 48.74 18.38 48.74 18.37C49.39 16.77 48.79 14.9 47.27 14.02Z" />
		</g>
	</g>
</svg>